<svg width="130" height="30" viewBox="0 0 130 30" fill="none" xmlns="http://www.w3.org/2000/svg">
<path d="M25.3353 16.2281C25.3353 20.7653 21.6569 24.4434 17.1192 24.4434C15.0115 24.4434 13.0894 23.6497 11.6349 22.3453C13.9649 21.2964 15.5869 18.9546 15.5869 16.2341C15.5869 13.5099 13.9608 11.1657 11.626 10.1188C13.0817 8.80967 15.0072 8.01288 17.1192 8.01288C21.6569 8.01288 25.3353 11.691 25.3353 16.2281Z" fill="#F02E65"/>
<path d="M13.8348 9.67066C8.78894 5.85779 1.50716 8.93631 0.727781 15.2122C0.365606 18.129 1.58925 21.017 3.93662 22.7858C8.98529 26.5953 16.2649 23.5114 17.04 17.2349C17.3996 14.3218 16.1778 11.4385 13.8348 9.67058V9.67066ZM12.921 10.8812C17.0376 13.9873 16.2476 20.3843 11.499 22.396C9.29541 23.3296 6.76084 23.0167 4.85039 21.5751C0.733969 18.469 1.52382 12.0719 6.27236 10.0604C8.47602 9.12687 11.0106 9.43968 12.921 10.8812Z" fill="#F02E65"/>
<path d="M9.10575 13.3858C9.09601 13.41 8.9702 13.9034 8.83515 14.4887C8.69465 15.0739 8.47215 15.9977 8.34658 16.5441C8.10461 17.5453 7.95949 18.2031 7.95949 18.29C7.95949 18.3141 8.10956 18.3337 8.29312 18.3337H8.62708L8.77682 17.6661C8.86402 17.3035 9.05765 16.4715 9.21225 15.8186C9.36711 15.1657 9.55554 14.3725 9.62822 14.0531C9.70074 13.7339 9.77334 13.444 9.78786 13.41C9.80238 13.3665 9.72004 13.3522 9.4685 13.3522C9.27982 13.3522 9.11532 13.3665 9.10575 13.3858ZM6.5084 15.4799L6.06348 15.9637L6.19424 16.1185C6.26659 16.2054 6.46517 16.4232 6.63429 16.6023L6.94392 16.9309H7.82427L7.40814 16.4812C7.18069 16.2396 6.9921 16.0072 6.9921 15.9783C6.9921 15.9444 7.16625 15.7269 7.37927 15.4946C7.59195 15.2578 7.76611 15.0544 7.76611 15.0303C7.76611 15.0108 7.58238 14.9964 7.35996 14.9964H6.95844L6.5084 15.4799ZM9.89403 15.0254C9.89403 15.04 9.97637 15.1317 10.0778 15.2333C10.4554 15.6106 10.7213 15.93 10.7067 15.9926C10.6972 16.0267 10.5132 16.2539 10.2908 16.4908L9.88941 16.9309H10.3391L10.7889 16.9262L11.1998 16.4763C11.4275 16.225 11.6112 16.0022 11.6112 15.9734C11.6112 15.9493 11.4177 15.7219 11.1758 15.4657L10.7408 14.9964H10.3197C10.0827 14.9964 9.89403 15.0108 9.89403 15.0254Z" fill="#F02E65"/>
<path d="M30.195 16.48C30.195 15.36 30.4216 14.38 30.875 13.54C31.3283 12.6867 31.9483 12.0267 32.735 11.56C33.535 11.0933 34.4216 10.86 35.395 10.86C36.355 10.86 37.1883 11.0667 37.895 11.48C38.6016 11.8933 39.1283 12.4133 39.475 13.04V11.04H41.315V22H39.475V19.96C39.115 20.6 38.575 21.1333 37.855 21.56C37.1483 21.9733 36.3216 22.18 35.375 22.18C34.4016 22.18 33.5216 21.94 32.735 21.46C31.9483 20.98 31.3283 20.3067 30.875 19.44C30.4216 18.5733 30.195 17.5867 30.195 16.48ZM39.475 16.5C39.475 15.6733 39.3083 14.9533 38.975 14.34C38.6416 13.7267 38.1883 13.26 37.615 12.94C37.055 12.6067 36.435 12.44 35.755 12.44C35.075 12.44 34.455 12.6 33.895 12.92C33.335 13.24 32.8883 13.7067 32.555 14.32C32.2216 14.9333 32.055 15.6533 32.055 16.48C32.055 17.32 32.2216 18.0533 32.555 18.68C32.8883 19.2933 33.335 19.7667 33.895 20.1C34.455 20.42 35.075 20.58 35.755 20.58C36.435 20.58 37.055 20.42 37.615 20.1C38.1883 19.7667 38.6416 19.2933 38.975 18.68C39.3083 18.0533 39.475 17.3267 39.475 16.5ZM46.2106 7.2V22H44.3906V7.2H46.2106ZM62.4925 10.84C63.3458 10.84 64.1058 11.02 64.7725 11.38C65.4391 11.7267 65.9658 12.2533 66.3525 12.96C66.7391 13.6667 66.9325 14.5267 66.9325 15.54V22H65.1325V15.8C65.1325 14.7067 64.8591 13.8733 64.3125 13.3C63.7791 12.7133 63.0525 12.42 62.1325 12.42C61.1858 12.42 60.4325 12.7267 59.8725 13.34C59.3125 13.94 59.0325 14.8133 59.0325 15.96V22H57.2325V15.8C57.2325 14.7067 56.9591 13.8733 56.4125 13.3C55.8791 12.7133 55.1525 12.42 54.2325 12.42C53.2858 12.42 52.5325 12.7267 51.9725 13.34C51.4125 13.94 51.1325 14.8133 51.1325 15.96V22H49.3125V11.04H51.1325V12.62C51.4925 12.0467 51.9725 11.6067 52.5725 11.3C53.1858 10.9933 53.8591 10.84 54.5925 10.84C55.5125 10.84 56.3258 11.0467 57.0325 11.46C57.7391 11.8733 58.2658 12.48 58.6125 13.28C58.9191 12.5067 59.4258 11.9067 60.1325 11.48C60.8391 11.0533 61.6258 10.84 62.4925 10.84ZM74.6979 22.18C73.6713 22.18 72.7379 21.9467 71.8979 21.48C71.0713 21.0133 70.4179 20.3533 69.9379 19.5C69.4713 18.6333 69.2379 17.6333 69.2379 16.5C69.2379 15.38 69.4779 14.3933 69.9579 13.54C70.4513 12.6733 71.1179 12.0133 71.9579 11.56C72.7979 11.0933 73.7379 10.86 74.7779 10.86C75.8179 10.86 76.7579 11.0933 77.5979 11.56C78.4379 12.0133 79.0979 12.6667 79.5779 13.52C80.0713 14.3733 80.3179 15.3667 80.3179 16.5C80.3179 17.6333 80.0646 18.6333 79.5579 19.5C79.0646 20.3533 78.3913 21.0133 77.5379 21.48C76.6846 21.9467 75.7379 22.18 74.6979 22.18ZM74.6979 20.58C75.3513 20.58 75.9646 20.4267 76.5379 20.12C77.1113 19.8133 77.5713 19.3533 77.9179 18.74C78.2779 18.1267 78.4579 17.38 78.4579 16.5C78.4579 15.62 78.2846 14.8733 77.9379 14.26C77.5913 13.6467 77.1379 13.1933 76.5779 12.9C76.0179 12.5933 75.4113 12.44 74.7579 12.44C74.0913 12.44 73.4779 12.5933 72.9179 12.9C72.3713 13.1933 71.9313 13.6467 71.5979 14.26C71.2646 14.8733 71.0979 15.62 71.0979 16.5C71.0979 17.3933 71.2579 18.1467 71.5779 18.76C71.9113 19.3733 72.3513 19.8333 72.8979 20.14C73.4446 20.4333 74.0446 20.58 74.6979 20.58ZM86.5909 22.18C85.7509 22.18 84.9976 22.04 84.3309 21.76C83.6642 21.4667 83.1376 21.0667 82.7509 20.56C82.3642 20.04 82.1509 19.4467 82.1109 18.78H83.9909C84.0442 19.3267 84.2976 19.7733 84.7509 20.12C85.2176 20.4667 85.8242 20.64 86.5709 20.64C87.2642 20.64 87.8109 20.4867 88.2109 20.18C88.6109 19.8733 88.8109 19.4867 88.8109 19.02C88.8109 18.54 88.5976 18.1867 88.1709 17.96C87.7442 17.72 87.0842 17.4867 86.1909 17.26C85.3776 17.0467 84.7109 16.8333 84.1909 16.62C83.6842 16.3933 83.2442 16.0667 82.8709 15.64C82.5109 15.2 82.3309 14.6267 82.3309 13.92C82.3309 13.36 82.4976 12.8467 82.8309 12.38C83.1642 11.9133 83.6376 11.5467 84.2509 11.28C84.8642 11 85.5642 10.86 86.3509 10.86C87.5642 10.86 88.5442 11.1667 89.2909 11.78C90.0376 12.3933 90.4376 13.2333 90.4909 14.3H88.6709C88.6309 13.7267 88.3976 13.2667 87.9709 12.92C87.5576 12.5733 86.9976 12.4 86.2909 12.4C85.6376 12.4 85.1176 12.54 84.7309 12.82C84.3442 13.1 84.1509 13.4667 84.1509 13.92C84.1509 14.28 84.2642 14.58 84.4909 14.82C84.7309 15.0467 85.0242 15.2333 85.3709 15.38C85.7309 15.5133 86.2242 15.6667 86.8509 15.84C87.6376 16.0533 88.2776 16.2667 88.7709 16.48C89.2642 16.68 89.6842 16.9867 90.0309 17.4C90.3909 17.8133 90.5776 18.3533 90.5909 19.02C90.5909 19.62 90.4242 20.16 90.0909 20.64C89.7576 21.12 89.2842 21.5 88.6709 21.78C88.0709 22.0467 87.3776 22.18 86.5909 22.18ZM95.3801 12.54V19C95.3801 19.5333 95.4935 19.9133 95.7201 20.14C95.9468 20.3533 96.3401 20.46 96.9001 20.46H98.2401V22H96.6001C95.5868 22 94.8268 21.7667 94.3201 21.3C93.8135 20.8333 93.5601 20.0667 93.5601 19V12.54H92.1401V11.04H93.5601V8.28H95.3801V11.04H98.2401V12.54H95.3801ZM104.525 22.18C103.619 22.18 102.805 22.02 102.085 21.7C101.365 21.3667 100.792 20.92 100.365 20.36C99.9519 19.8 99.7253 19.18 99.6853 18.5H102.505C102.559 18.9267 102.765 19.28 103.125 19.56C103.499 19.84 103.959 19.98 104.505 19.98C105.039 19.98 105.452 19.8733 105.745 19.66C106.052 19.4467 106.205 19.1733 106.205 18.84C106.205 18.48 106.019 18.2133 105.645 18.04C105.285 17.8533 104.705 17.6533 103.905 17.44C103.079 17.24 102.399 17.0333 101.865 16.82C101.345 16.6067 100.892 16.28 100.505 15.84C100.132 15.4 99.9453 14.8067 99.9453 14.06C99.9453 13.4467 100.119 12.8867 100.465 12.38C100.825 11.8733 101.332 11.4733 101.985 11.18C102.652 10.8867 103.432 10.74 104.325 10.74C105.645 10.74 106.699 11.0733 107.485 11.74C108.272 12.3933 108.705 13.28 108.785 14.4H106.105C106.065 13.96 105.879 13.6133 105.545 13.36C105.225 13.0933 104.792 12.96 104.245 12.96C103.739 12.96 103.345 13.0533 103.065 13.24C102.799 13.4267 102.665 13.6867 102.665 14.02C102.665 14.3933 102.852 14.68 103.225 14.88C103.599 15.0667 104.179 15.26 104.965 15.46C105.765 15.66 106.425 15.8667 106.945 16.08C107.465 16.2933 107.912 16.6267 108.285 17.08C108.672 17.52 108.872 18.1067 108.885 18.84C108.885 19.48 108.705 20.0533 108.345 20.56C107.999 21.0667 107.492 21.4667 106.825 21.76C106.172 22.04 105.405 22.18 104.525 22.18ZM115.424 22.18C114.517 22.18 113.704 22.02 112.984 21.7C112.264 21.3667 111.69 20.92 111.264 20.36C110.85 19.8 110.624 19.18 110.584 18.5H113.404C113.457 18.9267 113.664 19.28 114.024 19.56C114.397 19.84 114.857 19.98 115.404 19.98C115.937 19.98 116.35 19.8733 116.644 19.66C116.95 19.4467 117.104 19.1733 117.104 18.84C117.104 18.48 116.917 18.2133 116.544 18.04C116.184 17.8533 115.604 17.6533 114.804 17.44C113.977 17.24 113.297 17.0333 112.764 16.82C112.244 16.6067 111.79 16.28 111.404 15.84C111.03 15.4 110.844 14.8067 110.844 14.06C110.844 13.4467 111.017 12.8867 111.364 12.38C111.724 11.8733 112.23 11.4733 112.884 11.18C113.55 10.8867 114.33 10.74 115.224 10.74C116.544 10.74 117.597 11.0733 118.384 11.74C119.17 12.3933 119.604 13.28 119.684 14.4H117.004C116.964 13.96 116.777 13.6133 116.444 13.36C116.124 13.0933 115.69 12.96 115.144 12.96C114.637 12.96 114.244 13.0533 113.964 13.24C113.697 13.4267 113.564 13.6867 113.564 14.02C113.564 14.3933 113.75 14.68 114.124 14.88C114.497 15.0667 115.077 15.26 115.864 15.46C116.664 15.66 117.324 15.8667 117.844 16.08C118.364 16.2933 118.81 16.6267 119.184 17.08C119.57 17.52 119.77 18.1067 119.784 18.84C119.784 19.48 119.604 20.0533 119.244 20.56C118.897 21.0667 118.39 21.4667 117.724 21.76C117.07 22.04 116.304 22.18 115.424 22.18ZM124.882 12.64C125.242 12.0533 125.709 11.5933 126.282 11.26C126.869 10.9267 127.535 10.76 128.282 10.76V13.7H127.542C126.662 13.7 125.995 13.9067 125.542 14.32C125.102 14.7333 124.882 15.4533 124.882 16.48V22H122.082V10.92H124.882V12.64Z" fill="#F02E65"/>
</svg>
